<svg width="250" height="250" viewBox="0 0 250 250" fill="none" xmlns="http://www.w3.org/2000/svg">
<path d="M103.855 233.685L31.49 191.91L156.34 119.83L228.7 161.605L103.855 233.685Z" fill="#F0F0F0"/>
<path d="M28.595 83.095C27.3296 86.2277 26.575 89.5432 26.36 92.915C25.72 100.415 28.36 121.86 29.9 132.755C32.115 150.97 34.825 151 38.775 154.05C45.56 159.29 65.085 169.55 71.53 172.11C83.215 176.705 92.765 169.61 99.885 166.11C106.414 162.808 112.716 159.077 118.75 154.94C120.53 153.64 121.45 152.33 121.435 150.94C121.435 150.4 121.435 148.16 121.435 147.585C121.435 145.825 119.885 143.94 116.615 141.82C110.58 137.905 88.77 125.185 80.315 120.505C80.3129 120.487 80.3048 120.471 80.2921 120.458C80.2794 120.445 80.2628 120.437 80.245 120.435C73.745 116.485 69.745 92.61 65.245 78.33C65.15 78.03 65.055 77.73 64.955 77.445C64.855 77.16 64.795 76.995 64.72 76.78C64.435 76.005 64.145 75.28 63.835 74.645" fill="#FFC107"/>
<path d="M121.435 147.58C121.435 145.82 119.885 143.935 116.615 141.815C110.58 137.9 88.7702 125.18 80.3152 120.5C80.313 120.482 80.305 120.466 80.2923 120.453C80.2796 120.44 80.263 120.432 80.2452 120.43C73.7452 116.48 69.7452 92.605 65.2452 78.325C64.9767 77.4346 64.6629 76.5584 64.3052 75.7L64.2202 75.51C64.1402 75.32 64.0552 75.125 63.9652 74.93C63.9202 74.835 63.8801 74.73 63.8352 74.64C63.1258 73.0126 62.1069 71.5386 60.8352 70.3C60.3862 69.8862 59.8813 69.5378 59.3352 69.265C58.6052 68.85 57.0702 67.995 56.6852 67.765C52.2652 65.125 46.4752 68.295 39.2552 72.265C34.7552 74.725 30.9302 77.655 28.6002 83.105C27.3347 86.2377 26.5801 89.5532 26.3652 92.925C25.7252 100.425 28.3652 121.87 29.9052 132.765C32.1202 150.98 34.8302 151.01 38.7802 154.06C45.5652 159.3 65.0902 169.56 71.5352 172.12C83.2202 176.715 92.7701 169.62 99.8902 166.12C106.419 162.818 112.721 159.087 118.755 154.95C120.535 153.65 121.455 152.34 121.44 150.95C121.42 150.395 121.435 148.155 121.435 147.58Z" fill="#FFC107"/>
<path opacity="0.25" d="M121.435 147.58C121.435 145.82 119.885 143.935 116.615 141.815C110.58 137.9 88.7702 125.18 80.3152 120.5C80.313 120.482 80.305 120.466 80.2923 120.453C80.2796 120.44 80.263 120.432 80.2452 120.43C73.7452 116.48 69.7452 92.605 65.2452 78.325C64.9767 77.4346 64.6629 76.5584 64.3052 75.7L64.2202 75.51C64.1402 75.32 64.0552 75.125 63.9652 74.93C63.9202 74.835 63.8801 74.73 63.8352 74.64C63.1258 73.0126 62.1069 71.5386 60.8352 70.3C60.3862 69.8862 59.8813 69.5378 59.3352 69.265C58.6052 68.85 57.0702 67.995 56.6852 67.765C52.2652 65.125 46.4752 68.295 39.2552 72.265C34.7552 74.725 30.9302 77.655 28.6002 83.105C27.3347 86.2377 26.5801 89.5532 26.3652 92.925C25.7252 100.425 28.3652 121.87 29.9052 132.765C32.1202 150.98 34.8302 151.01 38.7802 154.06C45.5652 159.3 65.0902 169.56 71.5352 172.12C83.2202 176.715 92.7701 169.62 99.8902 166.12C106.419 162.818 112.721 159.087 118.755 154.95C120.535 153.65 121.455 152.34 121.44 150.95C121.42 150.395 121.435 148.155 121.435 147.58Z" fill="white"/>
<path d="M99.88 162.71C106.409 159.406 112.711 155.673 118.745 151.535C122.795 148.59 122.42 145.58 116.615 141.815C108.55 136.585 75.68 117.93 75.68 117.93C75.68 117.93 34.12 142.46 35.905 147C37.69 151.54 63.405 165.545 71.52 168.73C83.21 173.315 92.76 166.225 99.88 162.71Z" fill="#FFC107"/>
<path opacity="0.6" d="M99.88 162.71C106.409 159.406 112.711 155.673 118.745 151.535C122.795 148.59 122.42 145.58 116.615 141.815C108.55 136.585 75.68 117.93 75.68 117.93C75.68 117.93 34.12 142.46 35.905 147C37.69 151.54 63.405 165.545 71.52 168.73C83.21 173.315 92.76 166.225 99.88 162.71Z" fill="white"/>
<path d="M59.33 69.265C54.955 66.97 49.27 70.09 42.24 73.94C37.74 76.41 33.895 79.34 31.565 84.815L28.595 83.095C30.925 77.645 34.755 74.715 39.25 72.255C46.47 68.3 52.25 65.13 56.68 67.755C57.065 68 58.6 68.85 59.33 69.265Z" fill="#FFC107"/>
<path opacity="0.5" d="M59.33 69.265C54.955 66.97 49.27 70.09 42.24 73.94C37.74 76.41 33.895 79.34 31.565 84.815L28.595 83.095C30.925 77.645 34.755 74.715 39.25 72.255C46.47 68.3 52.25 65.13 56.68 67.755C57.065 68 58.6 68.85 59.33 69.265Z" fill="white"/>
<path d="M65.225 78.325C65.13 78.025 63.625 72.785 60.805 70.3C59.4825 69.1241 57.7696 68.4824 56 68.5C52.18 68.5 47.595 71 42.22 73.965C41.77 74.21 41.325 74.465 40.89 74.72C40.72 74.815 40.555 74.92 40.39 75.02C40.225 75.12 39.99 75.265 39.795 75.395C39.6 75.525 39.505 75.575 39.36 75.675C38.4114 76.3 37.506 76.9882 36.65 77.735C36.51 77.855 36.38 77.975 36.245 78.105C35.7021 78.6057 35.1895 79.1383 34.71 79.7C34.62 79.8 34.53 79.905 34.45 80.005C34.37 80.105 34.24 80.255 34.145 80.385C34.05 80.515 33.95 80.645 33.85 80.775C33.75 80.905 33.66 81.035 33.565 81.175C33.1812 81.7231 32.8258 82.2905 32.5 82.875C32.4535 82.9489 32.4117 83.0257 32.375 83.105C32.285 83.26 32.2 83.425 32.12 83.605C32.04 83.785 31.885 84.105 31.77 84.325C30.545 87.025 29.695 90.365 29.335 94.62C28.295 106.985 32.63 144.89 36.88 148.415C36.88 148.415 36.23 144.415 44.78 139.035C50.595 135.38 54.675 132.305 60.88 129.26C76 121.835 80.235 120.445 80.235 120.445C73.745 116.5 69.73 92.605 65.225 78.325Z" fill="#FFC107"/>
<path opacity="0.4" d="M65.225 78.325C65.13 78.025 63.625 72.785 60.805 70.3C59.4825 69.1241 57.7696 68.4824 56 68.5C52.18 68.5 47.595 71 42.22 73.965C41.77 74.21 41.325 74.465 40.89 74.72C40.72 74.815 40.555 74.92 40.39 75.02C40.225 75.12 39.99 75.265 39.795 75.395C39.6 75.525 39.505 75.575 39.36 75.675C38.4114 76.3 37.506 76.9882 36.65 77.735C36.51 77.855 36.38 77.975 36.245 78.105C35.7021 78.6057 35.1895 79.1383 34.71 79.7C34.62 79.8 34.53 79.905 34.45 80.005C34.37 80.105 34.24 80.255 34.145 80.385C34.05 80.515 33.95 80.645 33.85 80.775C33.75 80.905 33.66 81.035 33.565 81.175C33.1812 81.7231 32.8258 82.2905 32.5 82.875C32.4535 82.9489 32.4117 83.0257 32.375 83.105C32.285 83.26 32.2 83.425 32.12 83.605C32.04 83.785 31.885 84.105 31.77 84.325C30.545 87.025 29.695 90.365 29.335 94.62C28.295 106.985 32.63 144.89 36.88 148.415C36.88 148.415 36.23 144.415 44.78 139.035C50.595 135.38 54.675 132.305 60.88 129.26C76 121.835 80.235 120.445 80.235 120.445C73.745 116.5 69.73 92.605 65.225 78.325Z" fill="white"/>
<path d="M125.32 141.5L90.32 161.71L64.38 131.21L91.335 118.42C91.335 118.42 113.35 130.115 125.32 141.5Z" fill="#37474F"/>
<path d="M107.45 151.805L94.32 159.385C88.095 149.68 83.09 141.455 83.09 141.455L84.215 141.27C90.32 138.595 92.815 126.5 92.815 126.5C93.56 129.805 93.695 136.5 91.655 139C94.5 141.085 99.16 144.905 107.45 151.805Z" fill="#263238"/>
<path d="M105.375 153L77.92 168.85C74.615 167.175 70.975 165.3 67.205 163.35C54.445 156.64 50.175 154 46.5 149.36C42.285 144.05 40.085 139.69 39.46 125L91.185 118.5C95.47 129.665 89.185 139.315 89.185 139.315C89.185 139.315 98.25 146.885 105.375 153Z" fill="#37474F"/>
<path d="M77.335 62.285C83.795 62.22 87.655 63.49 92.19 70.44C99.315 81.355 104.615 91.53 104.615 91.53C104.615 91.53 114.145 96.12 119.115 97.85C123.765 99.465 125.615 100.145 127.615 100.615C129.28 101.017 130.976 101.273 132.685 101.38C132.685 101.38 130.345 113.88 125.125 112.79C117.025 111.095 102.675 108.42 98.86 107.35C95.045 106.28 93.78 104.42 90.085 99.525C86.325 94.525 78.44 81.28 78.44 81.28L77.335 62.285Z" fill="#C8856A"/>
<path d="M77.335 62.085C83.215 62.205 85.395 62.65 88.16 65.035C90.925 67.42 93.56 71.79 96.035 75.805C98.51 79.82 103 87.45 103 87.45C103 87.45 102.035 91.725 97.175 94.99C92.315 98.255 88.92 98.67 88.92 98.67L77.1 81.71L77.335 62.085Z" fill="#455A64"/>
<path d="M91.46 83.325C90.785 68.765 84.715 62.93 77.335 62.085C77.335 62.085 67.715 61.69 61.835 62.535C54.69 63.57 47.3 65.43 47.3 65.43C44.44 66.76 39.685 78.015 39.17 88.285C38.8 95.58 38.5 101.09 38.5 110.315C38.5 119.54 38.435 123.865 39.965 133.495C50.03 137.355 84.545 136.28 93.105 119.37C91.794 116.141 91.1708 112.674 91.275 109.19C91.345 104.3 91.67 87.9 91.46 83.325Z" fill="#F0F0F0"/>
<path d="M58.93 56.73C58.835 52.61 55.43 47.83 54.155 44.06C52.915 40.43 52.26 37.655 52.92 34.51C53.315 32.645 54.87 30.265 56.345 29.935C55.75 22.705 61.475 20.225 64.345 19.965C65.688 19.888 67.0244 19.7209 68.345 19.465C69.955 19.05 70.475 17.88 71.845 17.025C74.21 15.525 77.76 16.025 78.715 18.92C80.38 17.315 82.27 17.64 84.385 18.515C85.2797 18.8619 86.0094 19.5353 86.427 20.3993C86.8446 21.2632 86.9189 22.2534 86.635 23.17C89.81 21.955 92.2 24.42 92.215 26.17C92.215 27.47 91.8 28.505 92.47 29.765C93.22 31.185 94.97 31.42 95.685 30.465C95.725 32.315 94.815 33.59 92.87 33.205C93.1263 33.7528 93.2591 34.3502 93.2591 34.955C93.2591 35.5598 93.1263 36.1572 92.87 36.705C92.5298 37.3952 91.987 37.9651 91.3142 38.3385C90.6414 38.712 89.8707 38.8712 89.105 38.795C88.755 39.76 88.58 40.66 87.83 41.425C87.1134 42.2086 86.218 42.8073 85.22 43.17C82.045 44.17 78.72 44.13 75.405 44.325L71.495 44.56C71.27 44.56 70.11 44.475 69.945 44.65L58.93 56.73Z" fill="#263238"/>
<path d="M54.82 50.82C57.4 52.92 59.58 51.37 59.58 51.37L57.445 64.6C58.82 70.6 68.375 72.965 72.135 71.875C75.895 70.785 75.755 68.625 73.93 65.115L74.5 63C76.093 63.2667 77.7012 63.4337 79.315 63.5C82.525 63.53 85.63 60.865 87.03 57.585C88.6353 53.449 89.3179 49.0123 89.03 44.585C88.9422 43.4635 89.0488 42.3352 89.345 41.25C90.075 38.365 89.795 36.58 89.4 34.005C86.335 30.705 78.455 28.585 70.31 32.04C70.525 36.62 68.28 39.895 64.81 41.115C64.81 42.34 64.49 45.4 62.525 45.055C61.105 44.805 61.275 43.005 60.025 41.22C58.775 39.435 55.445 38.515 53.785 40.64C51.455 43.56 52 48.5 54.82 50.82Z" fill="#C8856A"/>
<path d="M74 52.735C73.7892 52.9859 73.6524 53.2907 73.605 53.615C73.5775 53.7587 73.5775 53.9063 73.605 54.05C73.6446 54.2639 73.7385 54.4641 73.8777 54.6313C74.0169 54.7986 74.1968 54.9272 74.4 55.005C74.6373 55.1105 74.8956 55.1601 75.155 55.15C75.6556 55.0641 76.1217 54.8388 76.5 54.5C76.8853 54.154 77.37 53.9388 77.885 53.885C77.4536 53.6299 77.0469 53.3353 76.67 53.005C76.4863 52.8731 76.3185 52.7205 76.17 52.55C76.0184 52.3473 75.8798 52.1352 75.755 51.915C75.7318 51.8628 75.6912 51.8203 75.64 51.795C75.5886 51.7749 75.5315 51.7749 75.48 51.795C75.0253 51.9176 74.6012 52.1339 74.235 52.43C74.1478 52.5244 74.0691 52.6265 74 52.735Z" fill="#FFA8A7"/>
<path d="M76.45 52.93C76.375 52.695 76.09 52.78 75.915 52.825C75.6411 52.895 75.382 53.0135 75.15 53.175C75.0091 53.2735 74.8843 53.3932 74.78 53.53C74.6879 53.6776 74.6092 53.8332 74.545 53.995C74.545 53.995 74.545 54.05 74.545 54.03C74.6603 53.9317 74.7823 53.8414 74.91 53.76L75.31 53.495C75.5525 53.3475 75.8153 53.2363 76.09 53.165C76.235 53.135 76.5 53.14 76.45 52.93Z" fill="#F28F8F"/>
<path d="M79.86 51.055L84.915 50.145C83.49 45.845 81.415 41.855 79.975 41.87L79.86 51.055Z" fill="#AF6152"/>
<path d="M75.47 51.585C75.5567 51.5813 75.6429 51.6003 75.72 51.64C75.9447 51.7746 76.1471 51.9433 76.32 52.14C77.0014 52.7768 77.7925 53.285 78.655 53.64C78.8399 53.7146 79.0284 53.7797 79.22 53.835L79.87 54.03C79.946 54.0433 80.0159 54.08 80.07 54.135C80.41 54.54 79.185 54.38 79.07 54.36C78.6024 54.2891 78.1444 54.165 77.705 53.99C76.8179 53.6514 76.0351 53.0859 75.435 52.35C75.3361 52.2404 75.2657 52.1082 75.23 51.965C75.214 51.8927 75.2231 51.8172 75.2558 51.7508C75.2885 51.6845 75.3429 51.6312 75.41 51.6C75.4286 51.5904 75.4491 51.5853 75.47 51.585Z" fill="#AF6152"/>
<path d="M74.5 63C69.585 61.68 65.865 60.585 63.79 56.58C62.49 54.08 61.645 50.215 61.645 50.215C61.645 50.215 61.51 54.715 62.7 57.955C63.625 60.455 66.3 62.93 74.04 64.745L74.5 63Z" fill="#AF6152"/>
<path d="M76.875 43.14C76.8352 43.4318 76.7105 43.7054 76.5162 43.9267C76.322 44.148 76.0669 44.3073 75.7828 44.3847C75.4987 44.462 75.1981 44.454 74.9185 44.3617C74.6388 44.2694 74.3926 44.0968 74.2104 43.8655C74.0282 43.6341 73.9181 43.3543 73.8939 43.0608C73.8696 42.7673 73.9323 42.4732 74.0741 42.2151C74.2158 41.9571 74.4305 41.7464 74.6911 41.6094C74.9518 41.4725 75.247 41.4153 75.54 41.445C75.7403 41.4653 75.9345 41.5257 76.111 41.6227C76.2874 41.7196 76.4426 41.8511 76.5671 42.0092C76.6917 42.1674 76.7832 42.349 76.8361 42.5433C76.889 42.7376 76.9022 42.9405 76.875 43.14Z" fill="#263238"/>
<path d="M76.43 38.175L73 39.405C72.8396 38.9352 72.8683 38.4214 73.0802 37.9725C73.2921 37.5236 73.6704 37.1748 74.135 37C74.3625 36.9188 74.6042 36.8851 74.8452 36.9008C75.0862 36.9166 75.3214 36.9815 75.5364 37.0916C75.7514 37.2016 75.9416 37.3545 76.0953 37.5409C76.2489 37.7272 76.3629 37.943 76.43 38.175Z" fill="#263238"/>
<path d="M88.275 40.5L85.145 38.57C85.2608 38.3574 85.4189 38.1707 85.6097 38.0216C85.8005 37.8726 86.0198 37.7642 86.2542 37.7033C86.4885 37.6424 86.7328 37.6302 86.9721 37.6674C87.2113 37.7047 87.4403 37.7907 87.645 37.92C88.0593 38.1885 88.3554 38.6052 88.4725 39.0849C88.5896 39.5645 88.519 40.0708 88.275 40.5Z" fill="#263238"/>
<path d="M87.285 44.29C87.2207 44.5777 87.0731 44.8401 86.8605 45.0444C86.648 45.2486 86.38 45.3858 86.09 45.4386C85.8 45.4914 85.5008 45.4576 85.2299 45.3415C84.9589 45.2253 84.7283 45.0318 84.5666 44.7853C84.405 44.5387 84.3196 44.25 84.3211 43.9552C84.3226 43.6605 84.411 43.3726 84.5751 43.1278C84.7392 42.8829 84.9719 42.6918 85.244 42.5784C85.5161 42.4649 85.8155 42.4342 86.105 42.49C86.3021 42.528 86.4895 42.6051 86.6562 42.7169C86.8229 42.8286 86.9655 42.9727 87.0756 43.1405C87.1856 43.3084 87.2608 43.4966 87.2968 43.694C87.3328 43.8915 87.3288 44.0941 87.285 44.29Z" fill="#263238"/>
<path d="M103.865 202.705L39.9 165.775L155.445 99.065L219.405 135.995L103.865 202.705Z" fill="#FFC107"/>
<path opacity="0.8" d="M103.865 202.705L39.9 165.775L155.445 99.065L219.405 135.995L103.865 202.705Z" fill="white"/>
<path d="M39.9 165.775V191.98L103.865 228.91V202.705L39.9 165.775Z" fill="#FFC107"/>
<path opacity="0.5" d="M39.9 165.775V191.98L103.865 228.91V202.705L39.9 165.775Z" fill="white"/>
<path d="M103.865 228.91L219.41 162.2L219.405 135.995L103.865 202.705V228.91Z" fill="#FFC107"/>
<path opacity="0.65" d="M103.865 202.705L219.405 135.995L219.41 162.2L103.865 228.91V202.705Z" fill="white"/>
<path d="M192.27 151.66L161.635 193.57L131 187.035L192.27 151.66Z" fill="#EBEBEB"/>
<path d="M59.055 176.835L71.88 207.61L84.71 191.645L59.055 176.835Z" fill="#E0E0E0"/>
<path d="M192.18 151.715L200.27 124.945L174.4 110.01L128.59 114.57L67.025 150.115L59.055 176.795L84.755 191.635L131 187.035L192.18 151.715Z" fill="#FAFAFA"/>
<path d="M137.06 183.535C143.325 187.035 151.06 186.76 159.425 181.925C167.79 177.09 175.54 168.425 181.8 157.705L137.06 183.535Z" fill="#E0E0E0"/>
<path opacity="0.2" d="M166.77 131.265C152.165 122.83 131.2 120.315 112.77 123.695L78.11 143.695C72.265 154.325 76.64 166.42 91.24 174.85C103.74 182.055 120.84 184.945 137.045 183.525L181.785 157.695C184.255 148.35 179.25 138.47 166.77 131.265Z" fill="#FFC107"/>
<path d="M125.135 112.79L127.715 113.625C128.885 114.044 130.09 114.36 131.315 114.57C132.485 114.735 133.91 114.21 134.98 114.5C135.48 114.63 137.18 115.23 137.405 115.715C137.63 116.2 137.265 116.8 137.29 117.26C137.359 117.893 137.527 118.51 137.79 119.09C138.145 119.975 138.55 120.93 139.38 121.4C139.63 121.54 139.91 121.63 140.145 121.785C140.518 122.108 140.865 122.459 141.185 122.835C141.524 123.127 141.937 123.318 142.379 123.387C142.821 123.456 143.273 123.4 143.685 123.225C144.242 122.929 144.727 122.514 145.105 122.01C145.742 121.264 146.336 120.483 146.885 119.67C147.965 118.07 148.885 116.115 148.355 114.265C148.055 113.265 147.355 112.39 147.285 111.35C147.308 110.93 147.308 110.51 147.285 110.09C147.135 109.13 146.23 108.45 145.975 107.515C145.885 107.17 145.885 106.805 145.83 106.455C145.625 105.175 144.535 104.31 143.605 103.5C142.626 102.644 141.56 101.893 140.425 101.26C139.963 100.975 139.456 100.772 138.925 100.66C138.482 100.6 138.033 100.6 137.59 100.66C135.92 100.83 134.315 101.16 132.67 101.375C131.22 101.57 129.62 101.935 128.41 102.875C127.08 103.915 126.35 105.64 125.635 107.115C124.82 108.79 124.02 110.49 123.29 112.195L125.135 112.79Z" fill="#C8856A"/>
<path d="M137.94 119.115L145.605 89.445C145.087 89.0317 144.622 88.5565 144.22 88.03L143.835 88.13L135.245 116.855C135 117.74 136.69 119.615 137.335 119.45L137.725 119.355C137.779 119.338 137.827 119.306 137.865 119.264C137.903 119.222 137.929 119.17 137.94 119.115Z" fill="#37474F"/>
<path d="M135.245 116.855C134.96 117.855 137.27 120.235 137.555 119.21L145.22 89.54C144.701 89.1298 144.236 88.6561 143.835 88.13L135.245 116.855Z" fill="#455A64"/>
<path opacity="0.1" d="M144.855 89.8L138.045 116.4C137.545 118.4 137.37 119.615 136.43 118.655C135.325 117.535 135.58 117.125 135.58 117.125C135.739 117.553 135.994 117.94 136.325 118.255C136.92 118.81 137.325 118.085 137.625 116.625C137.925 115.165 144.855 89.8 144.855 89.8Z" fill="white"/>
<path d="M150.275 73.695L149.895 73.785C149.895 73.785 150.85 76.025 149.745 79.69C149.631 80.6279 149.297 81.5256 148.77 82.31C148.67 82.045 149.19 80.745 149.37 79.44C149.955 75.235 149.635 73.355 149.635 73.355L149.195 73.145L148.81 73.24C148.81 73.24 149.445 74.12 148.21 79.405C147.985 80.985 147.64 81.305 147.325 81.655C147.055 81.505 147.62 80.075 147.825 78.955C148.73 74.315 148.61 72.955 148.61 72.955L148.04 72.615L147.655 72.71C147.655 72.71 148.025 73.49 146.535 79.03C146.368 79.7081 146.089 80.3536 145.71 80.94C145.45 80.695 145.83 79.975 146.29 78.44C146.928 76.4504 147.275 74.3789 147.32 72.29L146.82 72.015L146.44 72.11C146.44 72.11 147.11 74.11 144.17 80.28C143.477 81.7749 143.172 83.4209 143.285 85.065C143.47 86.565 144.115 87.295 143.83 88.145C144.199 88.6974 144.669 89.1757 145.215 89.555C145.241 89.4514 145.278 89.3509 145.325 89.255C145.415 89.325 145.505 89.4 145.595 89.465C145.93 88.045 148.04 87.86 148.87 86.665C149.7 85.47 150.42 83.845 151.11 80.21C151.815 76.47 150.745 73.995 150.745 73.995L150.275 73.695Z" fill="#37474F"/>
<path d="M149.895 73.785C149.895 73.785 150.61 75.595 149.745 79.69C149.445 81.1 148.835 82.69 148.445 82.475C148.055 82.26 148.76 80.925 148.99 79.535C149.725 75.11 149.255 73.445 149.255 73.445L148.81 73.24C148.81 73.24 149.27 74.62 148.21 79.405C147.91 80.74 147.35 82.005 146.88 81.745C146.41 81.485 147.12 80.175 147.38 79.045C148.49 74.5 148.225 73.045 148.225 73.045L147.65 72.71C147.65 72.71 147.88 74.075 146.53 79.03C146.205 80.22 145.695 81.24 145.33 81.06C144.965 80.88 145.375 80.175 145.905 78.535C147.195 74.535 146.93 72.38 146.93 72.38L146.43 72.11C146.43 72.11 146.775 74.11 144.16 80.28C143.66 81.49 143.095 83.58 143.275 85.065C143.455 86.55 144.105 87.295 143.82 88.145C144.189 88.6974 144.659 89.1757 145.205 89.555C145.54 88.135 147.645 87.955 148.48 86.755C149.315 85.555 150.03 83.94 150.72 80.305C151.425 76.565 150.35 74.085 150.35 74.085L149.895 73.785Z" fill="#455A64"/>
<path opacity="0.1" d="M146.885 86.71C146.545 86.98 146.18 87.21 145.885 87.515C145.561 87.8076 145.358 88.2105 145.315 88.645C145.569 88.3559 145.862 88.1035 146.185 87.895C146.425 87.75 146.685 87.64 146.935 87.51C147.964 86.9542 148.765 86.0554 149.2 84.97C149.27 84.79 149.76 83.47 149.325 83.495C149.155 83.495 148.96 84.08 148.88 84.225C148.72 84.515 148.55 84.8 148.38 85.07C147.968 85.6897 147.464 86.2427 146.885 86.71Z" fill="white"/>
<path d="M132.93 103C135.183 103.4 137.467 103.606 139.755 103.615C141.16 103.56 141.955 103.405 142.14 103.96C142.325 104.515 142.49 106.015 140.045 107.275C137.6 108.535 130.74 109.085 130.74 109.085L132.93 103Z" fill="#C8856A"/>
<path d="M132.93 103C133.884 103.147 134.846 103.238 135.81 103.275C136.775 103.34 137.74 103.375 138.7 103.375C139.2 103.375 139.65 103.375 140.13 103.34C140.629 103.288 141.131 103.288 141.63 103.34C141.791 103.358 141.946 103.413 142.083 103.499C142.219 103.586 142.335 103.702 142.42 103.84C142.552 104.119 142.585 104.435 142.515 104.735C142.405 105.256 142.168 105.742 141.825 106.15C141.154 106.911 140.317 107.507 139.38 107.895C138.477 108.307 137.521 108.591 136.54 108.74C135.575 108.872 134.604 108.952 133.63 108.98C132.66 109.01 131.69 108.98 130.73 109.08C132.635 108.68 134.59 108.685 136.46 108.275C137.388 108.094 138.292 107.802 139.15 107.405C140 107.034 140.756 106.479 141.365 105.78C141.654 105.451 141.858 105.056 141.96 104.63C142.04 104.175 141.96 103.95 141.53 103.875C140.68 103.75 139.635 103.94 138.675 103.835C136.736 103.758 134.811 103.478 132.93 103Z" fill="#AF6152"/>
<path d="M179.925 143.035V150.14C179.865 157.64 174.925 165.08 165.02 170.785C145.14 182.285 112.905 182.285 93.02 170.785C83.14 165.08 78.175 157.615 78.115 150.14V143.035L84.475 144.065C86.9926 141.485 89.8627 139.275 93 137.5C112.885 126 145.12 126 165 137.5C168.124 139.258 170.985 141.446 173.5 144L179.925 143.035Z" fill="#FFC107"/>
<path opacity="0.4" d="M179.925 143.035V150.14C179.865 157.64 174.925 165.08 165.02 170.785C145.14 182.285 112.905 182.285 93.02 170.785C83.14 165.08 78.175 157.615 78.115 150.14V143.035L84.475 144.065C86.9926 141.485 89.8627 139.275 93 137.5C112.885 126 145.12 126 165 137.5C168.124 139.258 170.985 141.446 173.5 144L179.925 143.035Z" fill="white"/>
<path opacity="0.4" d="M98.0349 173.315C96.3242 172.562 94.6552 171.717 93.0349 170.785C83.1549 165.08 78.1899 157.615 78.1299 150.14V143.035L84.4899 144.065C85.0249 143.505 85.5949 142.96 86.1949 142.42L98.0599 145.345L98.0349 173.315Z" fill="#FFC107"/>
<path d="M129.015 172.29C157.132 172.29 179.925 159.129 179.925 142.895C179.925 126.661 157.132 113.5 129.015 113.5C100.898 113.5 78.105 126.661 78.105 142.895C78.105 159.129 100.898 172.29 129.015 172.29Z" fill="#FFC107"/>
<path opacity="0.6" d="M129.015 172.29C157.132 172.29 179.925 159.129 179.925 142.895C179.925 126.661 157.132 113.5 129.015 113.5C100.898 113.5 78.105 126.661 78.105 142.895C78.105 159.129 100.898 172.29 129.015 172.29Z" fill="white"/>
<path d="M172.41 136.405C176.87 144.14 173.05 152.5 162.185 158.77C144.185 169.155 113.825 169.155 95.845 158.77C91.135 156.045 87.6 152.8 85.625 149.375C81.16 141.65 85 133.285 95.845 127C113.845 116.615 144.205 116.615 162.185 127C166.895 129.725 170.43 132.97 172.405 136.395L172.41 136.405Z" fill="#FFC107"/>
<path d="M172.41 135.83C176.87 144.25 173.05 153.33 162.185 160.18C144.185 171.485 113.825 171.485 95.845 160.18C91.135 157.22 87.6 153.68 85.625 149.955C81.16 141.535 84.98 132.455 95.845 125.605C113.845 114.3 144.205 114.3 162.185 125.605C166.895 128.565 170.43 132.105 172.405 135.83H172.41Z" fill="#FFC107"/>
<path opacity="0.4" d="M172.41 135.83C176.87 144.25 173.05 153.33 162.185 160.18C144.185 171.485 113.825 171.485 95.845 160.18C91.135 157.22 87.6 153.68 85.625 149.955C81.16 141.535 84.98 132.455 95.845 125.605C113.845 114.3 144.205 114.3 162.185 125.605C166.895 128.565 170.43 132.105 172.405 135.83H172.41Z" fill="white"/>
<path d="M95.8 129.8C88.88 134.15 84.83 139.42 83.945 144.85C84.2005 146.637 84.7692 148.365 85.625 149.955C87.6 153.685 91.125 157.22 95.845 160.18C113.845 171.485 144.205 171.485 162.185 160.18C169.105 155.83 173.15 150.56 174.04 145.135C173.782 143.347 173.214 141.617 172.36 140.025C170.36 136.3 166.86 132.76 162.135 129.8C144.155 118.5 113.775 118.5 95.8 129.8Z" fill="#FAFAFA"/>
<path d="M155.745 160.875C155.498 160.993 155.227 161.051 154.953 161.045C154.68 161.039 154.412 160.969 154.17 160.84L150.79 158.89C150.34 158.63 150.315 158.225 150.735 157.985C150.983 157.867 151.255 157.809 151.529 157.815C151.803 157.821 152.073 157.891 152.315 158.02L155.695 159.97C156.145 160.23 156.17 160.635 155.745 160.875Z" fill="#FFC107"/>
<path d="M155.745 131C155.498 130.882 155.227 130.824 154.953 130.83C154.68 130.836 154.412 130.906 154.17 131.035L150.79 132.985C150.34 133.245 150.315 133.65 150.735 133.89C150.983 134.008 151.255 134.066 151.529 134.06C151.803 134.054 152.073 133.984 152.315 133.855L155.695 131.91C156.145 131.655 156.17 131.245 155.745 131Z" fill="#FFC107"/>
<path d="M102.12 160.875C102.367 160.993 102.638 161.051 102.912 161.045C103.185 161.039 103.453 160.969 103.695 160.84L107.075 158.89C107.53 158.63 107.55 158.225 107.13 157.985C106.882 157.867 106.61 157.809 106.336 157.815C106.062 157.821 105.792 157.891 105.55 158.02L102.175 159.97C101.72 160.23 101.7 160.635 102.12 160.875Z" fill="#FFC107"/>
<path d="M102.12 131C102.367 130.882 102.638 130.824 102.912 130.83C103.185 130.836 103.453 130.906 103.695 131.035L107.075 132.985C107.53 133.245 107.55 133.65 107.13 133.89C106.882 134.008 106.61 134.066 106.336 134.06C106.062 134.054 105.792 133.984 105.55 133.855L102.175 131.91C101.72 131.655 101.7 131.245 102.12 131Z" fill="#FFC107"/>
<path d="M128.99 146.54L148.865 158.475L150.09 157.92L132.415 145.735L128.99 146.54Z" fill="#455A64"/>
<path d="M151.23 132.22L149.23 131.005C149.23 131.005 129.6 138.3 125.595 140.61C124.655 141.155 124.19 141.865 124.19 142.575V143.765C124.19 144.475 124.655 145.19 125.595 145.735C126.65 146.27 127.817 146.549 129 146.549C130.183 146.549 131.35 146.27 132.405 145.735C136.525 144.08 151.22 133.415 151.22 133.415L151.23 132.22Z" fill="#37474F"/>
<path d="M149.24 131C149.24 131 129.61 138.295 125.605 140.605C123.725 141.69 123.725 143.45 125.605 144.535C126.66 145.07 127.827 145.349 129.01 145.349C130.193 145.349 131.36 145.07 132.415 144.535C136.535 142.88 151.23 132.215 151.23 132.215L149.24 131Z" fill="#455A64"/>
<path d="M130.125 141.94C129.781 141.765 129.401 141.674 129.015 141.674C128.629 141.674 128.249 141.765 127.905 141.94C127.771 141.985 127.654 142.071 127.572 142.186C127.489 142.301 127.445 142.439 127.445 142.58C127.445 142.721 127.489 142.859 127.572 142.974C127.654 143.089 127.771 143.175 127.905 143.22C128.249 143.395 128.629 143.486 129.015 143.486C129.401 143.486 129.781 143.395 130.125 143.22C130.259 143.175 130.376 143.089 130.458 142.974C130.541 142.859 130.585 142.721 130.585 142.58C130.585 142.439 130.541 142.301 130.458 142.186C130.376 142.071 130.259 141.985 130.125 141.94Z" fill="#263238"/>
<path d="M140.532 126.569L138.144 129.753L138.408 129.951L140.796 126.767L140.532 126.569Z" fill="#37474F"/>
<path d="M117.297 126.58L117.033 126.778L119.42 129.963L119.684 129.765L117.297 126.58Z" fill="#37474F"/>
<path d="M138.405 161.765L138.141 161.963L140.529 165.147L140.793 164.949L138.405 161.765Z" fill="#37474F"/>
<path d="M119.425 161.766L117.036 164.949L117.3 165.147L119.689 161.964L119.425 161.766Z" fill="#37474F"/>
<path d="M165.394 137.589L160.171 138.674L160.238 138.997L165.461 137.912L165.394 137.589Z" fill="#37474F"/>
<path d="M160.23 152.876L160.163 153.199L165.388 154.28L165.455 153.957L160.23 152.876Z" fill="#37474F"/>
<path d="M92.4366 137.612L92.3697 137.935L97.5941 139.016L97.661 138.693L92.4366 137.612Z" fill="#37474F"/>
<path d="M97.5895 152.874L92.3657 153.958L92.4327 154.281L97.6565 153.197L97.5895 152.874Z" fill="#37474F"/>
<path d="M79 143.765C78.0855 143.468 77.1875 143.123 76.31 142.73C73.2153 141.202 70.0292 139.866 66.77 138.73L71.215 145.655C73.39 146.27 75.575 147.085 77.88 147.005C78.5236 146.996 79.1565 146.838 79.7296 146.545C80.3027 146.252 80.8007 145.831 81.185 145.315C81.875 144.29 79.685 144 79 143.765Z" fill="#C8856A"/>
<path d="M71.275 164.83L78.935 135.16C78.4201 134.747 77.9568 134.274 77.555 133.75L77.17 133.845L68.58 162.57C68.335 163.455 70.025 165.33 70.67 165.165L71.06 165.07C71.1141 165.053 71.1627 165.022 71.2005 164.98C71.2384 164.937 71.2641 164.886 71.275 164.83Z" fill="#37474F"/>
<path d="M84.8 119.465C84.665 116.175 83.7 114.785 83.11 114.965C82.9569 115.021 82.8067 115.084 82.66 115.155C82.12 116.29 77.84 132.505 75.66 140.155L77.84 139.495C78.415 136.995 82.035 136.4 83.115 133.755C84.195 131.11 84.96 123.5 84.8 119.465Z" fill="#37474F"/>
<path d="M68.58 162.57C68.295 163.595 70.605 165.95 70.89 164.925L78.55 135.26C78.0328 134.848 77.5692 134.372 77.17 133.845L68.58 162.57Z" fill="#455A64"/>
<path d="M84.235 119.715C84.075 115.67 82.885 114.375 82.345 115.505C81.805 116.635 77.44 132.665 75.23 140.325L77.415 139.66C77.985 137.16 81.16 136.71 82.24 134.065C83.32 131.42 84.4 123.76 84.235 119.715Z" fill="#455A64"/>
<path opacity="0.1" d="M78.185 135.5L71.38 162.1C70.88 164.1 70.7 165.315 69.76 164.36C68.66 163.235 68.915 162.825 68.915 162.825C69.0738 163.252 69.3267 163.639 69.655 163.955C70.255 164.51 70.655 163.785 70.96 162.325C71.265 160.865 78.185 135.5 78.185 135.5Z" fill="white"/>
<path d="M85.0248 148.865C84.8097 148.685 84.5534 148.56 84.2787 148.502C84.0039 148.445 83.7192 148.456 83.4498 148.535C82.9148 148.694 82.4282 148.984 82.0348 149.38C81.7945 149.645 81.5038 149.859 81.1798 150.01C80.8156 150.108 80.433 150.117 80.0648 150.035C78.5648 149.83 76.6098 150.035 75.2498 149.325C74.4708 148.847 73.7391 148.297 73.0648 147.68L72.9598 147.595C72.2148 147 71.4898 146.38 70.7798 145.745C70.8148 145.585 71.0548 145.59 71.2198 145.635L66.7748 138.71C63.6548 137.57 61.4998 135.68 55.0848 127.855L44.3698 114.785C44.3698 114.785 48.4998 91.6 48.9398 87.35C49.9648 77.705 50.0048 69.685 45.7448 66.54C38.7148 68.31 33.2698 71.785 31.4048 83.075C28.6648 99.69 27.1548 109.575 26.8398 112.435C26.0998 119.095 25.6648 121.725 28.9798 125.19C32.1748 128.525 32.2398 128.38 41.5748 136.03C45.7148 139.42 47.3448 141.255 51.2898 144.19C55.0748 147 55.6298 147.69 57.1248 149.42C58.6198 151.15 59.2148 152.385 61.1548 154.38C62.5731 155.767 64.1726 156.956 65.9098 157.915C67.262 158.659 68.7767 159.057 70.3198 159.075C71.6733 159.215 73.0402 159.151 74.3748 158.885C75.0838 158.805 75.7836 158.658 76.4648 158.445C77.0098 158.225 77.3798 157.68 77.8448 157.335C78.4398 156.89 79.8048 156.335 80.3198 155.835C80.8008 155.232 81.1561 154.538 81.3648 153.795C82.2294 153.494 82.9778 152.929 83.5048 152.18C83.8397 151.675 84.1292 151.141 84.3698 150.585C84.4498 150.395 85.1398 148.97 85.0248 148.865Z" fill="#C8856A"/>
<path d="M81.705 153.615C81.0143 154.055 80.2395 154.346 79.43 154.47C78.6301 154.622 77.8221 154.727 77.01 154.785C76.81 154.785 76.635 154.83 76.38 154.83C76.1668 154.821 75.9545 154.796 75.745 154.755C75.3426 154.679 74.9452 154.579 74.555 154.455C73.7809 154.217 73.0242 153.927 72.29 153.585L74.65 154.11C75.045 154.185 75.435 154.28 75.82 154.325C76.0087 154.355 76.199 154.374 76.39 154.38C76.54 154.38 76.765 154.345 76.965 154.325C77.775 154.26 78.575 154.205 79.37 154.125C80.1673 154.058 80.9523 153.886 81.705 153.615Z" fill="#AF6152"/>
<path d="M78.745 156.805C78.1377 157.178 77.4766 157.454 76.785 157.625C76.0916 157.81 75.3814 157.926 74.665 157.97C73.9381 157.954 73.2159 157.849 72.515 157.655C71.826 157.493 71.1479 157.288 70.485 157.04C71.195 157.11 71.89 157.215 72.59 157.31C73.2666 157.421 73.9497 157.488 74.635 157.51C76.0279 157.437 77.4073 157.2 78.745 156.805Z" fill="#AF6152"/>
<path d="M47.3 65.43C40.3 67.3 35.52 69.535 33.165 75.805C30.81 82.075 28.05 100.615 28.05 100.615C28.05 100.615 29.51 103.845 36.66 105.47C43.81 107.095 46.405 106.28 46.405 106.28C46.405 106.28 48.84 92.885 49.655 88.455C50.47 84.025 53.31 72.74 47.3 65.43Z" fill="#455A64"/>
<path opacity="0.2" d="M186.84 142.5C191.02 144.815 197.785 144.815 201.96 142.5C206.135 140.185 206.135 136.43 201.96 134.115C197.785 131.8 191.02 131.795 186.84 134.115C182.66 136.435 182.67 140.19 186.84 142.5Z" fill="#FFC107"/>
<path d="M185.13 112.315L185.955 134C185.97 134.361 186.055 134.716 186.205 135.045C186.693 135.996 187.473 136.765 188.43 137.24C191.725 139.085 197.075 139.085 200.375 137.24C201.33 136.765 202.107 135.996 202.59 135.045C202.721 134.757 202.804 134.45 202.835 134.135C202.84 134.043 202.84 133.952 202.835 133.86L203.65 112.36C204.069 111.774 204.31 111.08 204.345 110.36L203.345 137.095V137.385C203.245 138.63 202.37 139.86 200.73 140.81C197.23 142.81 191.55 142.81 188.05 140.81C186.345 139.81 185.47 138.535 185.43 137.24V137.15L184.43 110.36C184.474 111.065 184.717 111.743 185.13 112.315Z" fill="#F0F0F0"/>
<path d="M187.36 114.275C191.245 116.52 197.555 116.52 201.445 114.275C202.319 113.8 203.076 113.136 203.66 112.33L202.845 133.83V134.105C202.813 134.42 202.731 134.727 202.6 135.015C202.117 135.966 201.34 136.735 200.385 137.21C197.085 139.055 191.735 139.055 188.44 137.21C187.483 136.735 186.703 135.966 186.215 135.015C186.065 134.686 185.98 134.331 185.965 133.97L185.14 112.3C185.723 113.116 186.482 113.791 187.36 114.275Z" fill="#E6E6E6"/>
<path d="M202.84 134.055C202.77 135.21 201.945 136.35 200.375 137.23C197.075 139.075 191.725 139.075 188.425 137.23C186.855 136.35 186.03 135.23 185.96 134.055L185.26 115.9C185.185 114.55 186.075 113.185 187.935 112.155C191.505 110.155 197.295 110.155 200.865 112.155C202.725 113.185 203.615 114.55 203.54 115.9L202.84 134.055Z" fill="#FFC107"/>
<path opacity="0.45" d="M202.84 134.055C202.77 135.21 201.945 136.35 200.375 137.23C197.075 139.075 191.725 139.075 188.425 137.23C186.855 136.35 186.03 135.23 185.96 134.055L185.26 115.9C185.185 114.55 186.075 113.185 187.935 112.155C191.505 110.155 197.295 110.155 200.865 112.155C202.725 113.185 203.615 114.55 203.54 115.9L202.84 134.055Z" fill="white"/>
<path opacity="0.3" d="M200 136.85C196.9 138.49 191.87 138.49 188.77 136.85C185.67 135.21 185.67 132.56 188.77 130.92C191.87 129.28 196.9 129.285 200 130.92C203.1 132.555 203.115 135.215 200 136.85Z" fill="#FFC107"/>
<path opacity="0.7" d="M200.865 119.325C197.295 121.325 191.505 121.325 187.935 119.325C184.365 117.325 184.365 114.135 187.935 112.155C191.505 110.175 197.295 110.155 200.865 112.155C204.435 114.155 204.435 117.345 200.865 119.325Z" fill="white"/>
<path opacity="0.2" d="M187.935 119.33C191.03 121.045 195.79 121.27 199.33 120.015C194.4 120.87 189.77 118.575 190.175 115.615C190.175 115.55 190.175 115.49 190.21 115.425C189.214 115.168 188.256 114.781 187.36 114.275C186.956 114.043 186.572 113.779 186.21 113.485C184.5 115.38 185.085 117.745 187.935 119.33Z" fill="#FFC107"/>
<path d="M184.44 110.31V110.35C184.478 111.057 184.715 111.738 185.125 112.315C185.713 113.127 186.475 113.797 187.355 114.275C191.24 116.52 197.55 116.52 201.44 114.275C202.315 113.8 203.072 113.136 203.655 112.33C204.074 111.744 204.315 111.05 204.35 110.33C204.415 108.83 203.445 107.28 201.44 106.125C197.55 103.875 191.24 103.875 187.355 106.125C185.37 107.29 184.395 108.805 184.44 110.31ZM187.805 106.55C191.45 104.55 197.355 104.55 200.995 106.55C204.635 108.55 204.64 111.845 200.995 113.87C197.35 115.895 191.45 115.87 187.805 113.87C184.16 111.87 184.16 108.57 187.805 106.55Z" fill="#FAFAFA"/>
<path d="M187.805 113.87C191.45 115.87 197.355 115.87 200.995 113.87C204.635 111.87 204.64 108.57 200.995 106.55C197.35 104.53 191.45 104.55 187.805 106.55C184.16 108.55 184.16 111.845 187.805 113.87Z" fill="#E6E6E6"/>
<path d="M202.175 113.07C201.808 113.374 201.413 113.641 200.995 113.87C197.355 115.87 191.45 115.87 187.805 113.87C187.387 113.641 186.992 113.374 186.625 113.07C187.026 112.717 187.465 112.41 187.935 112.155C191.505 110.155 197.295 110.155 200.865 112.155C201.335 112.41 201.774 112.717 202.175 113.07Z" fill="#FFC107"/>
<path opacity="0.65" d="M202.175 113.07C201.808 113.374 201.413 113.641 200.995 113.87C197.355 115.87 191.45 115.87 187.805 113.87C187.387 113.641 186.992 113.374 186.625 113.07C187.026 112.717 187.465 112.41 187.935 112.155C191.505 110.155 197.295 110.155 200.865 112.155C201.335 112.41 201.774 112.717 202.175 113.07Z" fill="white"/>
<path opacity="0.2" d="M200.865 112.155C200.755 112.09 200.64 112.03 200.525 111.975C200.345 111.885 200.155 111.8 199.965 111.72C198.905 111.281 197.792 110.982 196.655 110.83C196.34 110.79 196.02 110.75 195.7 110.73C195.38 110.71 195.15 110.69 194.87 110.685H194.415C194.12 110.685 193.83 110.685 193.54 110.685C192.536 110.736 191.539 110.887 190.565 111.135C189.654 111.355 188.775 111.691 187.95 112.135C187.825 112.2 187.71 112.27 187.595 112.34L187.53 112.385L187.255 112.565L187.21 112.595L186.935 112.805L186.655 113.04C187.023 113.342 187.418 113.61 187.835 113.84C188.652 114.278 189.521 114.614 190.42 114.84C191.535 112.355 196.635 110.89 200.865 112.155Z" fill="#FFC107"/>
<path d="M186 135.255L186.055 136.915V137.03C186.165 139.495 189.86 141.47 194.4 141.47C198.94 141.47 202.61 139.505 202.745 137.055V136.91L202.795 135.24C202.35 137.555 198.755 139.36 194.39 139.36C190.025 139.36 186.46 137.565 186 135.255Z" fill="#FAFAFA"/>
<path opacity="0.2" d="M200.04 137.4C196.725 139.065 191.62 139.015 188.425 137.225C186.855 136.345 186.03 135.225 185.96 134.055L185.27 116.265H185.305C185.509 117.144 186.004 117.928 186.71 118.49C187.02 125.18 187.075 131.65 188.965 133.88C190.775 136 195.5 139.08 200.04 137.4Z" fill="#FFC107"/>
<path d="M126.085 142.965L126.22 145.185C129.724 145.708 133.262 145.981 136.805 146C143.595 146.125 173.145 147.23 174.55 146.315C176.795 144.86 174.05 141.46 174.05 141.46L126.085 142.965Z" fill="#FFBDA7"/>
<path d="M162.675 121C163.839 120.745 165.049 120.795 166.188 121.146C167.327 121.496 168.356 122.135 169.175 123C169.8 123.635 170.315 124.375 170.985 124.96C171.633 125.484 172.333 125.94 173.075 126.32C175.035 127.425 177.075 128.855 177.575 131.205C177.812 132.574 178.146 133.924 178.575 135.245C178.805 135.86 179.075 136.445 179.325 137.055C179.715 138.073 179.956 139.143 180.04 140.23C180.215 141.77 179.878 143.326 179.08 144.655C177.98 146.305 175.225 147.59 173.345 146.515V143C172.845 141.665 171.42 140.33 170.59 139.165L165.715 132.385C165.33 131.85 159.58 123.685 159.5 123.735C159.5 123.715 160.82 121.44 162.675 121Z" fill="#F0997A"/>
<path opacity="0.1" d="M175.31 140.325C175.46 138.715 175.86 137.36 175.1 135.825C174.595 134.887 173.934 134.041 173.145 133.325C172.195 132.405 171.055 131.72 170.34 130.595C169.955 129.99 169.76 129.285 169.41 128.66C168.66 127.32 167.285 126.455 165.91 125.79C164.675 125.195 163.25 124.555 162.825 123.25C162.711 122.837 162.709 122.402 162.821 121.988C162.933 121.575 163.153 121.199 163.46 120.9C163.205 120.93 162.96 120.97 162.685 121.025C160.83 121.445 159.51 123.72 159.51 123.72C159.59 123.67 165.34 131.835 165.725 132.37L170.6 139.15C171.43 140.315 172.865 141.65 173.355 142.985V146.53C174.98 147.46 177.26 146.625 178.56 145.31C176.08 145.5 175.105 142.5 175.31 140.325Z" fill="black"/>
<path d="M159.5 123.715C162.291 125.295 164.859 127.24 167.135 129.5L167.23 129.595C167.335 129.7 167.44 129.8 167.53 129.91C171.23 133.795 173.335 138.26 173.335 143H126.09L129.44 141.07L130.675 140.355C130.725 140.325 130.78 140.3 130.83 140.265L159.5 123.715Z" fill="#FFBDA7"/>
<path opacity="0.3" d="M159.5 123.715C162.291 125.295 164.859 127.24 167.135 129.5L167.23 129.595C167.335 129.7 167.44 129.8 167.53 129.91C171.23 133.795 173.335 138.26 173.335 143H126.09L129.44 141.07L130.675 140.355C130.725 140.325 130.78 140.3 130.83 140.265L159.5 123.715Z" fill="white"/>
<path d="M131.77 143.63C132.148 143.734 132.517 143.866 132.875 144.025C133.83 144.44 134.785 145.025 135.875 144.98C136.965 144.935 137.835 144.365 138.8 143.98C140.37 143.362 142.1 143.283 143.72 143.755C144.845 144.085 145.875 144.67 146.975 145.06C148.075 145.45 149.335 145.625 150.395 145.135C151.455 144.645 152.14 143.605 153.195 143.135C154.63 142.51 156.275 143.135 157.695 143.79C159.115 144.445 160.695 145.17 162.195 144.72C163.29 144.39 164.195 143.46 165.34 143.395C166.75 143.31 167.875 144.595 168.435 145.895C168.745 146.6 169.24 147.52 169.99 147.325C170.6 147.165 170.75 146.375 170.74 145.74C170.73 145.105 170.765 144.335 171.33 144.04C171.895 143.745 172.83 144.115 173.165 143.54C173.257 143.335 173.284 143.106 173.24 142.885C173.091 141.958 172.839 141.051 172.49 140.18C171.913 138.421 171.197 136.711 170.35 135.065C169.266 133.183 167.938 131.453 166.4 129.92C165.207 128.63 163.853 127.499 162.37 126.555C161.722 126.12 160.986 125.835 160.215 125.72C159.539 125.679 158.861 125.762 158.215 125.965C155.62 126.66 153.215 127.905 150.84 129.18C150.015 129.625 149.19 130.07 148.365 130.525C144.54 132.625 140.76 134.81 137 137.025C135.113 138.132 133.235 139.243 131.365 140.36L129.96 141.2C129.585 141.42 129.2 141.515 128.83 141.725C128.245 142.065 127.595 142.915 126.86 142.915C127.805 142.915 128.695 143.35 129.635 143.44C130.23 143.5 130.835 143.44 131.425 143.525L131.77 143.63Z" fill="#FFD2C3"/>
<path opacity="0.1" d="M161.465 133.105C162.74 132.37 163.145 131.32 162.68 130.39C162.401 129.883 161.978 129.471 161.465 129.205C160.418 128.672 159.26 128.395 158.085 128.395C156.91 128.395 155.752 128.672 154.705 129.205C153.815 129.705 153.345 130.385 153.31 131.055C153.275 131.725 153.725 132.555 154.705 133.105C155.753 133.634 156.911 133.91 158.085 133.91C159.259 133.91 160.417 133.634 161.465 133.105ZM151.655 135.26C150.528 134.688 149.282 134.39 148.018 134.39C146.753 134.39 145.507 134.688 144.38 135.26C143.425 135.81 142.92 136.53 142.88 137.26C142.84 137.99 143.33 138.86 144.38 139.465C145.508 140.035 146.754 140.331 148.018 140.331C149.281 140.331 150.527 140.035 151.655 139.465C153.025 138.675 153.465 137.545 152.96 136.545C152.662 135.997 152.208 135.549 151.655 135.26ZM166 136.5C165.05 136.214 164.062 136.075 163.07 136.09C159.735 136.12 157.07 137.7 157.12 139.625C157.145 140.54 157.78 141.37 158.805 141.98C160.163 142.731 161.699 143.103 163.25 143.055C166.585 143.025 169.25 141.445 169.2 139.52C169.15 138.185 167.865 137.05 166 136.5ZM137.37 137.5L130.83 141.27C130.78 141.3 129.65 140.92 129.6 140.955L128.905 141.35C129.075 141.495 129.955 142.255 130.165 142.38C131.42 143.078 132.84 143.424 134.275 143.38C137.365 143.355 139.83 141.88 139.775 140.11C139.755 139.025 138.805 138.075 137.37 137.5Z" fill="black"/>
<path d="M163.055 135.04C164.047 135.025 165.035 135.164 165.985 135.45C167.865 136.025 169.15 137.155 169.185 138.45C169.235 140.37 166.57 141.95 163.235 141.98C161.684 142.029 160.149 141.66 158.79 140.91C157.765 140.3 157.13 139.47 157.105 138.55C157.06 136.65 159.72 135.065 163.055 135.04Z" fill="#B16668"/>
<path opacity="0.3" d="M163.27 136.115C163.091 136.073 162.909 136.046 162.725 136.035C162.326 135.981 161.921 136.013 161.535 136.129C161.15 136.245 160.794 136.441 160.49 136.705C160.45 136.736 160.418 136.777 160.398 136.823C160.377 136.869 160.367 136.919 160.37 136.97C160.37 137.095 160.535 137.15 160.66 137.18C161.317 137.331 161.999 137.341 162.66 137.21C162.98 137.15 163.66 136.915 163.625 136.475C163.61 136.275 163.455 136.175 163.27 136.115ZM164.865 136.395C165.149 136.48 165.444 136.52 165.74 136.515C165.827 136.517 165.912 136.498 165.99 136.46C166.2 136.335 166.095 136.22 165.94 136.14C165.852 136.092 165.758 136.057 165.66 136.035C165.39 135.984 165.112 136.001 164.85 136.085C164.775 136.085 164.685 136.15 164.68 136.23C164.675 136.31 164.775 136.37 164.865 136.395ZM167.335 137.395C166.695 136.825 165.835 137.035 165.11 137.355C164.878 137.447 164.676 137.601 164.525 137.8C164.481 137.859 164.459 137.932 164.465 138.005C164.473 138.062 164.5 138.114 164.54 138.155C164.756 138.358 165.043 138.469 165.34 138.465C165.897 138.536 166.462 138.49 167 138.33C167.137 138.292 167.265 138.225 167.375 138.135C167.429 138.089 167.472 138.033 167.502 137.969C167.532 137.905 167.549 137.836 167.55 137.765C167.541 137.691 167.517 137.62 167.481 137.556C167.444 137.491 167.394 137.435 167.335 137.39V137.395ZM162.215 137.895C162.06 137.895 161.43 138.005 161.34 138.22C161.31 138.29 161.34 138.37 161.455 138.465C161.682 138.578 161.932 138.634 162.185 138.63C162.464 138.665 162.746 138.62 163 138.5C163.08 138.46 163.16 138.395 163.16 138.305C163.156 138.271 163.145 138.238 163.126 138.208C163.108 138.179 163.084 138.154 163.055 138.135C162.811 137.961 162.514 137.878 162.215 137.9V137.895ZM160.16 137.895C159.55 137.495 158.66 137.79 158.105 138.165C158.01 138.222 157.928 138.299 157.865 138.39C157.835 138.436 157.816 138.489 157.81 138.543C157.804 138.598 157.811 138.653 157.83 138.705C157.895 138.809 157.997 138.886 158.115 138.92C158.724 139.152 159.396 139.152 160.005 138.92C160.169 138.872 160.311 138.767 160.405 138.625C160.458 138.496 160.462 138.352 160.417 138.219C160.372 138.087 160.281 137.975 160.16 137.905V137.895ZM161.92 139.455C161.745 139.397 161.559 139.38 161.376 139.405C161.193 139.43 161.018 139.497 160.865 139.6C160.78 139.66 160.695 139.76 160.725 139.86C160.747 139.915 160.788 139.961 160.84 139.99C161.103 140.141 161.402 140.215 161.705 140.205C161.918 140.226 162.133 140.186 162.325 140.09C162.365 140.07 162.397 140.038 162.42 140C162.475 139.9 162.42 139.78 162.325 139.7C162.21 139.591 162.071 139.511 161.92 139.465V139.455ZM166.42 139.6C165.575 139.24 164.42 139.23 163.78 139.96C163.719 140.023 163.676 140.1 163.655 140.185C163.657 140.266 163.683 140.345 163.731 140.411C163.778 140.477 163.844 140.527 163.92 140.555C164.097 140.627 164.284 140.668 164.475 140.675C165.105 140.715 165.737 140.625 166.33 140.41C166.443 140.375 166.548 140.319 166.64 140.245C166.685 140.208 166.72 140.161 166.742 140.108C166.765 140.055 166.774 139.998 166.77 139.94C166.72 139.78 166.55 139.675 166.395 139.61L166.42 139.6Z" fill="#FFBDA7"/>
<path d="M161.465 128.18C161.978 128.446 162.401 128.858 162.68 129.365C163.145 130.295 162.74 131.34 161.465 132.075C160.418 132.608 159.26 132.885 158.085 132.885C156.91 132.885 155.752 132.608 154.705 132.075C153.705 131.515 153.26 130.77 153.31 130.03C153.36 129.29 153.81 128.69 154.705 128.18C155.752 127.647 156.91 127.37 158.085 127.37C159.26 127.37 160.418 127.647 161.465 128.18Z" fill="#B16668"/>
<path opacity="0.3" d="M158.085 128.76C158.56 128.909 159.061 128.957 159.555 128.9C159.662 128.901 159.768 128.879 159.865 128.835C159.912 128.811 159.951 128.773 159.977 128.727C160.002 128.681 160.014 128.628 160.01 128.575C159.981 128.489 159.922 128.417 159.845 128.37C159.625 128.226 159.373 128.139 159.111 128.117C158.849 128.096 158.586 128.139 158.345 128.245C158.198 128.299 158.076 128.403 158 128.54C157.99 128.561 157.985 128.584 157.985 128.607C157.985 128.631 157.99 128.654 158 128.675C158.018 128.712 158.048 128.742 158.085 128.76ZM156.5 129.73C157.395 129.375 156.475 128.66 155.91 128.63C155.57 128.63 153.98 129.07 154.625 129.555C154.71 129.613 154.805 129.655 154.905 129.68C155.416 129.876 155.978 129.893 156.5 129.73ZM157.565 130.49C158.006 130.623 158.464 130.692 158.925 130.695C159.093 130.708 159.262 130.693 159.425 130.65C159.579 130.598 159.713 130.5 159.81 130.37C159.867 130.302 159.906 130.219 159.921 130.132C159.936 130.044 159.927 129.953 159.895 129.87C159.834 129.764 159.741 129.68 159.63 129.63C158.993 129.308 158.259 129.233 157.57 129.42C157.431 129.463 157.303 129.537 157.195 129.635C157.141 129.684 157.1 129.744 157.074 129.812C157.048 129.88 157.038 129.953 157.045 130.025C157.09 130.265 157.35 130.41 157.585 130.5L157.565 130.49ZM161.885 129.585C161.683 129.382 161.411 129.264 161.125 129.255C160.835 129.22 160.565 129.255 160.525 129.485C160.525 129.575 160.59 129.655 160.665 129.705C160.92 129.87 161.212 129.968 161.515 129.99C161.58 130.002 161.647 129.998 161.709 129.978C161.772 129.958 161.829 129.922 161.875 129.875C161.906 129.834 161.925 129.785 161.93 129.734C161.935 129.683 161.927 129.632 161.905 129.585H161.885ZM155 131C154.986 131.085 154.995 131.172 155.028 131.251C155.061 131.331 155.115 131.4 155.185 131.45C155.512 131.715 155.904 131.888 156.32 131.95C156.707 132.04 157.107 132.057 157.5 132C157.69 131.965 157.9 131.875 157.94 131.685C157.944 131.618 157.932 131.552 157.906 131.49C157.88 131.428 157.841 131.374 157.79 131.33C157.435 131 155.26 130.285 155 131ZM160.665 131.185C160.414 131.065 160.137 131.006 159.859 131.015C159.58 131.024 159.308 131.099 159.065 131.235C158.99 131.275 158.91 131.325 158.895 131.405C158.88 131.485 159.005 131.625 159.125 131.67C159.26 131.721 159.401 131.754 159.545 131.77C159.805 131.795 161.235 131.605 160.67 131.18L160.665 131.185Z" fill="#FFBDA7"/>
<path d="M151.655 134.235C152.208 134.52 152.662 134.964 152.96 135.51C153.46 136.51 153.025 137.64 151.655 138.43C150.527 139 149.281 139.296 148.018 139.296C146.754 139.296 145.508 139 144.38 138.43C143.33 137.82 142.83 137.02 142.88 136.225C142.93 135.43 143.425 134.785 144.38 134.225C145.508 133.655 146.755 133.358 148.019 133.36C149.283 133.362 150.529 133.662 151.655 134.235Z" fill="#B16668"/>
<path opacity="0.3" d="M151.91 135.335C151.708 135.053 151.43 134.834 151.11 134.701C150.789 134.568 150.437 134.528 150.095 134.585C149.898 134.6 149.71 134.677 149.56 134.805C149.487 134.871 149.439 134.96 149.421 135.056C149.404 135.153 149.42 135.253 149.465 135.34C149.533 135.431 149.625 135.502 149.73 135.545C150.145 135.77 150.57 135.98 150.995 136.18C151.167 136.273 151.356 136.334 151.55 136.36C151.645 136.369 151.741 136.354 151.829 136.315C151.916 136.277 151.992 136.216 152.05 136.14C152.108 136.007 152.125 135.86 152.1 135.717C152.075 135.574 152.009 135.441 151.91 135.335ZM149.41 135.985C148.982 135.873 148.528 135.923 148.135 136.125C147.96 136.215 147.78 136.385 147.83 136.575C147.856 136.641 147.898 136.7 147.951 136.748C148.003 136.796 148.066 136.831 148.135 136.85C148.386 136.955 148.653 137.015 148.925 137.03C149.16 137.058 149.398 137.005 149.6 136.88C150 136.6 149.82 136.13 149.41 136V135.985ZM146.665 135.745C147.042 135.707 147.399 135.561 147.695 135.325C148.5 134.545 146.51 134.125 146.01 134.165C145.51 134.205 143.76 134.93 144.27 135.665C144.34 135.744 144.428 135.806 144.526 135.847C144.624 135.888 144.729 135.906 144.835 135.9C145.449 135.93 146.065 135.878 146.665 135.745ZM148.285 134.51C148.477 134.645 148.714 134.699 148.945 134.66C148.996 134.656 149.045 134.642 149.09 134.617C149.135 134.593 149.174 134.56 149.205 134.52C149.24 134.451 149.248 134.371 149.227 134.297C149.207 134.222 149.16 134.157 149.095 134.115C148.961 134.035 148.811 133.987 148.655 133.975C148.355 133.94 148.045 134.01 148.155 134.34C148.182 134.405 148.227 134.461 148.285 134.5V134.51ZM146.385 136.665C145.946 136.563 145.486 136.587 145.06 136.735C144.924 136.762 144.795 136.821 144.685 136.905C144.631 136.947 144.59 137.004 144.567 137.069C144.544 137.133 144.54 137.203 144.555 137.27C144.591 137.343 144.644 137.407 144.709 137.456C144.774 137.506 144.85 137.54 144.93 137.555C145.415 137.71 145.921 137.784 146.43 137.775C146.537 137.79 146.645 137.777 146.746 137.739C146.846 137.7 146.935 137.637 147.005 137.555C147.2 137.19 146.685 136.78 146.385 136.665ZM149.055 137.845C148.62 137.53 147.85 137.745 147.425 137.97C147.31 138.03 147.185 138.125 147.19 138.255C147.195 138.385 147.325 138.465 147.44 138.51C147.836 138.648 148.261 138.684 148.675 138.615C148.9 138.59 149.175 138.52 149.235 138.31C149.256 138.223 149.25 138.132 149.218 138.049C149.186 137.966 149.129 137.895 149.055 137.845ZM151.23 137.055C150.88 136.99 150.405 137.33 150.15 137.525C150.105 137.56 150.055 137.61 150.06 137.665C150.065 137.72 150.16 137.77 150.24 137.78C150.481 137.807 150.724 137.793 150.96 137.74C151.23 137.68 151.73 137.15 151.23 137.055Z" fill="#FFBDA7"/>
<path d="M130.675 140.335L129.6 140.96C129.777 141.108 129.966 141.24 130.165 141.355C131.419 142.054 132.84 142.399 134.275 142.355C137.365 142.33 139.83 140.855 139.775 139.085C139.745 138 138.775 137.055 137.36 136.485L130.82 140.25C130.78 140.28 130.725 140.305 130.675 140.335Z" fill="#B16668"/>
<g opacity="0.3">
<path d="M134.6 141.285C135.298 141.403 136.015 141.311 136.66 141.02C136.955 140.885 137.42 140.61 137.185 140.255C137.095 140.153 136.979 140.077 136.85 140.036C136.721 139.994 136.582 139.989 136.45 140.02C135.72 140.116 135.012 140.342 134.36 140.685C134.277 140.72 134.209 140.784 134.17 140.865C134.154 140.921 134.155 140.981 134.175 141.035C134.195 141.09 134.232 141.137 134.28 141.17C134.376 141.234 134.486 141.273 134.6 141.285Z" fill="#FFBDA7"/>
<path d="M136.185 138.075C136.105 138.132 136.04 138.207 135.995 138.294C135.95 138.381 135.926 138.477 135.925 138.575C135.943 138.669 135.983 138.758 136.04 138.835C136.097 138.912 136.17 138.975 136.255 139.02C136.497 139.176 136.768 139.28 137.053 139.324C137.337 139.367 137.628 139.351 137.905 139.275C138.115 139.233 138.308 139.13 138.459 138.977C138.61 138.825 138.711 138.631 138.75 138.42C138.756 138.343 138.744 138.266 138.715 138.195C138.663 138.104 138.589 138.029 138.5 137.975C138.156 137.738 137.743 137.62 137.326 137.638C136.908 137.656 136.508 137.809 136.185 138.075Z" fill="#FFBDA7"/>
<path d="M131.075 141.15C131.618 141.246 132.176 141.224 132.71 141.085C132.894 141.05 133.066 140.97 133.21 140.85C133.285 140.793 133.342 140.715 133.375 140.627C133.407 140.538 133.414 140.442 133.395 140.35C133.31 139.955 132.73 139.625 132.155 139.475L130.845 140.23C130.795 140.265 130.74 140.29 130.69 140.32L130.445 140.465C130.42 140.79 130.605 141.065 131.075 141.15Z" fill="#FFBDA7"/>
<path d="M134.615 138.91C134.375 138.91 133.7 138.975 133.735 139.36C133.735 139.485 133.885 139.555 134.01 139.585C134.337 139.671 134.678 139.683 135.01 139.62C135.255 139.575 135.54 139.39 135.36 139.12C135.286 139.031 135.18 138.974 135.065 138.96C134.918 138.924 134.767 138.907 134.615 138.91Z" fill="#FFBDA7"/>
</g>
</svg>
